999
dxfrw 0.6.3
  0
SECTION
  2
HEADER
  9
$ACADVER
  1
AC1021
  9
$DWGCODEPAGE
  3
ANSI_1252
  9
$INSBASE
 10
0
 20
0
 30
0
  9
$EXTMIN
 10
-4.500625000000004
 20
-4.111111111111111
 30
0
  9
$EXTMAX
 10
48.00125
 20
27.1827292098481
 30
0
  9
$LIMMIN
 10
0
 20
0
  9
$LIMMAX
 10
420
 20
297
  9
$ORTHOMODE
 70
    0
  9
$REGENMODE
 70
    1
  9
$FILLMODE
 70
    1
  9
$QTEXTMODE
 70
    0
  9
$MIRRTEXT
 70
    0
  9
$LTSCALE
 40
1
  9
$ATTMODE
 70
    0
  9
$TEXTSIZE
 40
2.5
  9
$TRACEWID
 40
15.68
  9
$TEXTSTYLE
  7
STANDARD
  9
$CLAYER
  8
mesure
  9
$CELTYPE
  6
BYLAYER
  9
$CECOLOR
 62
  256
  9
$CELTSCALE
 40
1
  9
$DISPSILH
 70
    0
  9
$DIMSCALE
 40
2.5
  9
$DIMASZ
 40
2.5
  9
$DIMEXO
 40
0.625
  9
$DIMDLI
 40
3.75
  9
$DIMRND
 40
0
  9
$DIMDLE
 40
0
  9
$DIMEXE
 40
1.25
  9
$DIMTP
 40
0
  9
$DIMTM
 40
0
  9
$DIMTXT
 40
2.5
  9
$DIMCEN
 40
2.5
  9
$DIMTSZ
 40
0
  9
$DIMTOL
 70
    0
  9
$DIMLIM
 70
    0
  9
$DIMTIH
 70
    0
  9
$DIMTOH
 70
    0
  9
$DIMSE1
 70
    0
  9
$DIMSE2
 70
    0
  9
$DIMTAD
 70
    1
  9
$DIMZIN
 70
    8
  9
$DIMBLK
  1

  9
$DIMASO
 70
    1
  9
$DIMSHO
 70
    1
  9
$DIMPOST
  1

  9
$DIMAPOST
  1

  9
$DIMALT
 70
    0
  9
$DIMALTD
 70
    3
  9
$DIMALTF
 40
0.03937
  9
$DIMLFAC
 40
1
  9
$DIMTOFL
 70
    1
  9
$DIMTVP
 40
0
  9
$DIMTIX
 70
    0
  9
$DIMSOXD
 70
    0
  9
$DIMSAH
 70
    0
  9
$DIMBLK1
  1

  9
$DIMBLK2
  1

  9
$DIMSTYLE
  2
STANDARD
  9
$DIMCLRD
 70
    0
  9
$DIMCLRE
 70
    0
  9
$DIMCLRT
 70
    0
  9
$DIMTFAC
 40
1
  9
$DIMGAP
 40
0.625
  9
$DIMJUST
 70
    0
  9
$DIMSD1
 70
    0
  9
$DIMSD2
 70
    0
  9
$DIMTOLJ
 70
    0
  9
$DIMTZIN
 70
    8
  9
$DIMALTZ
 70
    0
  9
$DIMALTTZ
 70
    0
  9
$DIMUPT
 70
    0
  9
$DIMDEC
 70
    2
  9
$DIMTDEC
 70
    2
  9
$DIMALTU
 70
    2
  9
$DIMALTTD
 70
    3
  9
$DIMTXSTY
  7
STANDARD
  9
$DIMAUNIT
 70
    0
  9
$DIMADEC
 70
    0
  9
$DIMALTRND
 40
0
  9
$DIMAZIN
 70
    0
  9
$DIMDSEP
 70
   44
  9
$DIMATFIT
 70
    3
  9
$DIMFRAC
 70
    0
  9
$DIMLDRBLK
  1
STANDARD
  9
$DIMLUNIT
 70
    2
  9
$DIMLWD
 70
   -2
  9
$DIMLWE
 70
   -2
  9
$DIMTMOVE
 70
    0
  9
$DIMFXL
 40
1
  9
$DIMFXLON
 70
    0
  9
$DIMJOGANG
 40
0.7854
  9
$DIMTFILL
 70
    0
  9
$DIMTFILLCLR
 70
    0
  9
$DIMARCSYM
 70
    0
  9
$DIMLTYPE
  6

  9
$DIMLTEX1
  6

  9
$DIMLTEX2
  6

  9
$LUNITS
 70
    2
  9
$LUPREC
 70
    4
  9
$SKETCHINC
 40
1
  9
$FILLETRAD
 40
0
  9
$AUNITS
 70
    0
  9
$AUPREC
 70
    2
  9
$MENU
  1
.
  9
$ELEVATION
 40
0
  9
$PELEVATION
 40
0
  9
$THICKNESS
 40
0
  9
$LIMCHECK
 70
    0
  9
$CHAMFERA
 40
0
  9
$CHAMFERB
 40
0
  9
$CHAMFERC
 40
0
  9
$CHAMFERD
 40
0
  9
$SKPOLY
 70
    0
  9
$USRTIMER
 70
    1
  9
$ANGBASE
 50
0
  9
$ANGDIR
 70
    0
  9
$PDMODE
 70
   34
  9
$PDSIZE
 40
0
  9
$PLINEWID
 40
0
  9
$SPLFRAME
 70
    0
  9
$SPLINETYPE
 70
    2
  9
$SPLINESEGS
 70
    8
  9
$HANDSEED
  5
20000
  9
$SURFTAB1
 70
    6
  9
$SURFTAB2
 70
    6
  9
$SURFTYPE
 70
    6
  9
$SURFU
 70
    6
  9
$SURFV
 70
    6
  9
$UCSBASE
  2

  9
$UCSNAME
  2

  9
$UCSORG
 10
0
 20
0
 30
0
  9
$UCSXDIR
 10
1
 20
0
 30
0
  9
$UCSYDIR
 10
0
 20
1
 30
0
  9
$UCSORTHOREF
  2

  9
$UCSORTHOVIEW
 70
    0
  9
$UCSORGTOP
 10
0
 20
0
 30
0
  9
$UCSORGBOTTOM
 10
0
 20
0
 30
0
  9
$UCSORGLEFT
 10
0
 20
0
 30
0
  9
$UCSORGRIGHT
 10
0
 20
0
 30
0
  9
$UCSORGFRONT
 10
0
 20
0
 30
0
  9
$UCSORGBACK
 10
0
 20
0
 30
0
  9
$PUCSBASE
  2

  9
$PUCSNAME
  2

  9
$PUCSORG
 10
0
 20
0
 30
0
  9
$PUCSXDIR
 10
1
 20
0
 30
0
  9
$PUCSYDIR
 10
0
 20
1
 30
0
  9
$PUCSORTHOREF
  2

  9
$PUCSORTHOVIEW
 70
    0
  9
$PUCSORGTOP
 10
0
 20
0
 30
0
  9
$PUCSORGBOTTOM
 10
0
 20
0
 30
0
  9
$PUCSORGLEFT
 10
0
 20
0
 30
0
  9
$PUCSORGRIGHT
 10
0
 20
0
 30
0
  9
$PUCSORGFRONT
 10
0
 20
0
 30
0
  9
$PUCSORGBACK
 10
0
 20
0
 30
0
  9
$USERI1
 70
    0
  9
$USERI2
 70
    0
  9
$USERI3
 70
    0
  9
$USERI4
 70
    0
  9
$USERI5
 70
    0
  9
$USERR1
 40
0
  9
$USERR2
 40
0
  9
$USERR3
 40
0
  9
$USERR4
 40
0
  9
$USERR5
 40
0
  9
$WORLDVIEW
 70
    1
  9
$SHADEDGE
 70
    3
  9
$SHADEDIF
 70
   70
  9
$TILEMODE
 70
    1
  9
$MAXACTVP
 70
   64
  9
$PINSBASE
 10
0.03374530671523637
 20
0.04413704783543308
 30
0
  9
$PLIMCHECK
 70
    0
  9
$PEXTMIN
 10
0
 20
0
 30
0
  9
$PEXTMAX
 10
0
 20
0
 30
0
  9
$SNAPSTYLE
 70
    0
  9
$PLIMMIN
 10
0
 20
0
  9
$PLIMMAX
 10
297
 20
210
  9
$UNITMODE
 70
    0
  9
$VISRETAIN
 70
    1
  9
$PLINEGEN
 70
    0
  9
$PSLTSCALE
 70
    1
  9
$TREEDEPTH
 70
 3020
  9
$CMLSTYLE
  2
Standard
  9
$CMLJUST
 70
    0
  9
$CMLSCALE
 40
20
  9
$PROXYGRAPHICS
 70
    1
  9
$MEASUREMENT
 70
    1
  9
$CELWEIGHT
370
   -1
  9
$ENDCAPS
280
    0
  9
$JOINSTYLE
280
    0
  9
$LWDISPLAY
290
    0
  9
$INSUNITS
 70
    0
  9
$HYPERLINKBASE
  1

  9
$STYLESHEET
  1

  9
$XEDIT
290
    1
  9
$CEPSNTYPE
380
    0
  9
$PSTYLEMODE
290
    1
  9
$EXTNAMES
290
    1
  9
$PSVPSCALE
 40
0
  9
$OLESTARTUP
290
    0
  9
$SORTENTS
280
  127
  9
$INDEXCTL
280
    0
  9
$HIDETEXT
280
    1
  9
$XCLIPFRAME
290
    0
  9
$HALOGAP
280
    0
  9
$OBSCOLOR
 70
  257
  9
$OBSLTYPE
280
    0
  9
$INTERSECTIONDISPLAY
280
    0
  9
$INTERSECTIONCOLOR
 70
  257
  9
$DIMASSOC
280
    1
  9
$PROJECTNAME
  1

  9
$CAMERADISPLAY
290
    0
  9
$LENSLENGTH
 40
50
  9
$CAMERAHEIGHT
 40
0
  9
$STEPSPERSEC
 40
2
  9
$STEPSIZE
 40
50
  9
$3DDWFPREC
 40
2
  9
$PSOLWIDTH
 40
5
  9
$PSOLHEIGHT
 40
80
  9
$LOFTANG1
 40
1.570796326794897
  9
$LOFTANG2
 40
1.570796326794897
  9
$LOFTMAG1
 40
0
  9
$LOFTMAG2
 40
0
  9
$LOFTPARAM
 70
    7
  9
$LOFTNORMALS
280
    1
  9
$LATITUDE
 40
1
  9
$LONGITUDE
 40
1
  9
$NORTHDIRECTION
 40
0
  9
$TIMEZONE
 70
-8000
  9
$LIGHTGLYPHDISPLAY
280
    1
  9
$TILEMODELIGHTSYNCH
280
    1
  9
$SOLIDHIST
280
    1
  9
$SHOWHIST
280
    1
  9
$DWFFRAME
280
    2
  9
$DGNFRAME
280
    0
  9
$REALWORLDSCALE
290
    1
  9
$INTERFERECOLOR
 62
    1
  9
$CSHADOW
280
    0
  9
$SHADOWPLANELOCATION
 40
0
  0
ENDSEC
  0
SECTION
  2
CLASSES
  0
ENDSEC
  0
SECTION
  2
TABLES
  0
TABLE
  2
VPORT
  5
8
330
0
100
AcDbSymbolTable
 70
    1
  0
VPORT
  5
31
330
2
100
AcDbSymbolTableRecord
100
AcDbViewportTableRecord
  2
*ACTIVE
 70
    0
 10
0
 20
0
 11
1
 21
1
 12
31.15256865770029
 22
16.78777310998293
 13
0
 23
0
 14
10
 24
10
 15
10
 25
10
 16
0
 26
0
 36
1
 17
0
 27
0
 37
0
 40
41.85405289103993
 41
1.702963473466575
 42
50
 43
0
 44
0
 50
0
 51
0
 71
    0
 72
  100
 73
    1
 74
    3
 75
    0
 76
    1
 77
    0
 78
    0
281
    0
 65
    1
110
0
120
0
130
0
111
1
121
0
131
0
112
0
122
1
132
0
 79
    0
146
0
348
10020
 60
    7
 61
    5
292
1
282
    1
141
0
142
0
 63
  250
421
3358443
  0
ENDTAB
  0
TABLE
  2
LTYPE
  5
5
330
0
100
AcDbSymbolTable
 70
    4
  0
LTYPE
  5
14
330
5
100
AcDbSymbolTableRecord
100
AcDbLinetypeTableRecord
  2
ByBlock
 70
    0
  3

 72
   65
 73
    0
 40
0
  0
LTYPE
  5
15
330
5
100
AcDbSymbolTableRecord
100
AcDbLinetypeTableRecord
  2
ByLayer
 70
    0
  3

 72
   65
 73
    0
 40
0
  0
LTYPE
  5
16
330
5
100
AcDbSymbolTableRecord
100
AcDbLinetypeTableRecord
  2
Continuous
 70
    0
  3
Solid line
 72
   65
 73
    0
 40
0
  0
LTYPE
  5
32
330
5
100
AcDbSymbolTableRecord
100
AcDbLinetypeTableRecord
  2
DOT
 70
    0
  3
Dot . . . . . . . . . . . . . . . . . . . . . .
 72
   65
 73
    2
 40
6.35
 49
0
 74
    0
 49
-6.35
 74
    0
  0
LTYPE
  5
33
330
5
100
AcDbSymbolTableRecord
100
AcDbLinetypeTableRecord
  2
DOTTINY
 70
    0
  3
Dot (.15x) .....................................
 72
   65
 73
    2
 40
0.9525
 49
0
 74
    0
 49
-0.9525
 74
    0
  0
LTYPE
  5
34
330
5
100
AcDbSymbolTableRecord
100
AcDbLinetypeTableRecord
  2
DOT2
 70
    0
  3
Dot (.5x) .....................................
 72
   65
 73
    2
 40
3.175
 49
0
 74
    0
 49
-3.175
 74
    0
  0
LTYPE
  5
35
330
5
100
AcDbSymbolTableRecord
100
AcDbLinetypeTableRecord
  2
DOTX2
 70
    0
  3
Dot (2x) .  .  .  .  .  .  .  .  .  .  .  .  .
 72
   65
 73
    2
 40
12.7
 49
0
 74
    0
 49
-12.7
 74
    0
  0
LTYPE
  5
36
330
5
100
AcDbSymbolTableRecord
100
AcDbLinetypeTableRecord
  2
DASHED
 70
    0
  3
Dashed _ _ _ _ _ _ _ _ _ _ _ _ _ _ _ _ _
 72
   65
 73
    2
 40
19.05
 49
12.7
 74
    0
 49
-6.35
 74
    0
  0
LTYPE
  5
37
330
5
100
AcDbSymbolTableRecord
100
AcDbLinetypeTableRecord
  2
DASHEDTINY
 70
    0
  3
Dashed (.15x) _ _ _ _ _ _ _ _ _ _ _ _ _ _ _ _ _
 72
   65
 73
    2
 40
2.8575
 49
1.905
 74
    0
 49
-0.9525
 74
    0
  0
LTYPE
  5
38
330
5
100
AcDbSymbolTableRecord
100
AcDbLinetypeTableRecord
  2
DASHED2
 70
    0
  3
Dashed (.5x) _ _ _ _ _ _ _ _ _ _ _ _ _ _ _ _ _
 72
   65
 73
    2
 40
9.524999999999999
 49
6.35
 74
    0
 49
-3.175
 74
    0
  0
LTYPE
  5
39
330
5
100
AcDbSymbolTableRecord
100
AcDbLinetypeTableRecord
  2
DASHEDX2
 70
    0
  3
Dashed (2x) ____  ____  ____  ____  ____  ___
 72
   65
 73
    2
 40
38.09999999999999
 49
25.4
 74
    0
 49
-12.7
 74
    0
  0
LTYPE
  5
3A
330
5
100
AcDbSymbolTableRecord
100
AcDbLinetypeTableRecord
  2
DASHDOT
 70
    0
  3
Dash dot __ . __ . __ . __ . __ . __ . __ . __
 72
   65
 73
    4
 40
25.4
 49
12.7
 74
    0
 49
-6.35
 74
    0
 49
0
 74
    0
 49
-6.35
 74
    0
  0
LTYPE
  5
3B
330
5
100
AcDbSymbolTableRecord
100
AcDbLinetypeTableRecord
  2
DASHDOTTINY
 70
    0
  3
Dash dot (.15x) _._._._._._._._._._._._._._._.
 72
   65
 73
    4
 40
3.81
 49
1.905
 74
    0
 49
-0.9525
 74
    0
 49
0
 74
    0
 49
-0.9525
 74
    0
  0
LTYPE
  5
3C
330
5
100
AcDbSymbolTableRecord
100
AcDbLinetypeTableRecord
  2
DASHDOT2
 70
    0
  3
Dash dot (.5x) _._._._._._._._._._._._._._._.
 72
   65
 73
    4
 40
12.7
 49
6.35
 74
    0
 49
-3.175
 74
    0
 49
0
 74
    0
 49
-3.175
 74
    0
  0
LTYPE
  5
3D
330
5
100
AcDbSymbolTableRecord
100
AcDbLinetypeTableRecord
  2
DASHDOTX2
 70
    0
  3
Dash dot (2x) ____  .  ____  .  ____  .  ___
 72
   65
 73
    4
 40
50.8
 49
25.4
 74
    0
 49
-12.7
 74
    0
 49
0
 74
    0
 49
-12.7
 74
    0
  0
LTYPE
  5
3E
330
5
100
AcDbSymbolTableRecord
100
AcDbLinetypeTableRecord
  2
DIVIDE
 70
    0
  3
Divide ____ . . ____ . . ____ . . ____ . . ____
 72
   65
 73
    6
 40
31.75
 49
12.7
 74
    0
 49
-6.35
 74
    0
 49
0
 74
    0
 49
-6.35
 74
    0
 49
0
 74
    0
 49
-6.35
 74
    0
  0
LTYPE
  5
3F
330
5
100
AcDbSymbolTableRecord
100
AcDbLinetypeTableRecord
  2
DIVIDETINY
 70
    0
  3
Divide (.15x) __..__..__..__..__..__..__..__.._
 72
   65
 73
    6
 40
4.7625
 49
1.905
 74
    0
 49
-0.9525
 74
    0
 49
0
 74
    0
 49
-0.9525
 74
    0
 49
0
 74
    0
 49
-0.9525
 74
    0
  0
LTYPE
  5
40
330
5
100
AcDbSymbolTableRecord
100
AcDbLinetypeTableRecord
  2
DIVIDE2
 70
    0
  3
Divide (.5x) __..__..__..__..__..__..__..__.._
 72
   65
 73
    6
 40
15.875
 49
6.35
 74
    0
 49
-3.175
 74
    0
 49
0
 74
    0
 49
-3.175
 74
    0
 49
0
 74
    0
 49
-3.175
 74
    0
  0
LTYPE
  5
41
330
5
100
AcDbSymbolTableRecord
100
AcDbLinetypeTableRecord
  2
DIVIDEX2
 70
    0
  3
Divide (2x) ________  .  .  ________  .  .  _
 72
   65
 73
    6
 40
63.5
 49
25.4
 74
    0
 49
-12.7
 74
    0
 49
0
 74
    0
 49
-12.7
 74
    0
 49
0
 74
    0
 49
-12.7
 74
    0
  0
LTYPE
  5
42
330
5
100
AcDbSymbolTableRecord
100
AcDbLinetypeTableRecord
  2
BORDER
 70
    0
  3
Border __ __ . __ __ . __ __ . __ __ . __ __ .
 72
   65
 73
    6
 40
44.45
 49
12.7
 74
    0
 49
-6.35
 74
    0
 49
12.7
 74
    0
 49
-6.35
 74
    0
 49
0
 74
    0
 49
-6.35
 74
    0
  0
LTYPE
  5
43
330
5
100
AcDbSymbolTableRecord
100
AcDbLinetypeTableRecord
  2
BORDERTINY
 70
    0
  3
Border (.15x) __.__.__.__.__.__.__.__.__.__.__.
 72
   65
 73
    6
 40
6.6675
 49
1.905
 74
    0
 49
-0.9525
 74
    0
 49
1.905
 74
    0
 49
-0.9525
 74
    0
 49
0
 74
    0
 49
-0.9525
 74
    0
  0
LTYPE
  5
44
330
5
100
AcDbSymbolTableRecord
100
AcDbLinetypeTableRecord
  2
BORDER2
 70
    0
  3
Border (.5x) __.__.__.__.__.__.__.__.__.__.__.
 72
   65
 73
    6
 40
22.225
 49
6.35
 74
    0
 49
-3.175
 74
    0
 49
6.35
 74
    0
 49
-3.175
 74
    0
 49
0
 74
    0
 49
-3.175
 74
    0
  0
LTYPE
  5
45
330
5
100
AcDbSymbolTableRecord
100
AcDbLinetypeTableRecord
  2
BORDERX2
 70
    0
  3
Border (2x) ____  ____  .  ____  ____  .  ___
 72
   65
 73
    6
 40
88.89999999999999
 49
25.4
 74
    0
 49
-12.7
 74
    0
 49
25.4
 74
    0
 49
-12.7
 74
    0
 49
0
 74
    0
 49
-12.7
 74
    0
  0
LTYPE
  5
46
330
5
100
AcDbSymbolTableRecord
100
AcDbLinetypeTableRecord
  2
CENTER
 70
    0
  3
Center ____ _ ____ _ ____ _ ____ _ ____ _ ____
 72
   65
 73
    4
 40
50.8
 49
31.75
 74
    0
 49
-6.35
 74
    0
 49
6.35
 74
    0
 49
-6.35
 74
    0
  0
LTYPE
  5
47
330
5
100
AcDbSymbolTableRecord
100
AcDbLinetypeTableRecord
  2
CENTERTINY
 70
    0
  3
Center (.15x) ___ _ ___ _ ___ _ ___ _ ___ _ ___
 72
   65
 73
    4
 40
7.62
 49
4.7625
 74
    0
 49
-0.9525
 74
    0
 49
0.9525
 74
    0
 49
-0.9525
 74
    0
  0
LTYPE
  5
48
330
5
100
AcDbSymbolTableRecord
100
AcDbLinetypeTableRecord
  2
CENTER2
 70
    0
  3
Center (.5x) ___ _ ___ _ ___ _ ___ _ ___ _ ___
 72
   65
 73
    4
 40
28.575
 49
19.05
 74
    0
 49
-3.175
 74
    0
 49
3.175
 74
    0
 49
-3.175
 74
    0
  0
LTYPE
  5
49
330
5
100
AcDbSymbolTableRecord
100
AcDbLinetypeTableRecord
  2
CENTERX2
 70
    0
  3
Center (2x) ________  __  ________  __  _____
 72
   65
 73
    4
 40
101.6
 49
63.5
 74
    0
 49
-12.7
 74
    0
 49
12.7
 74
    0
 49
-12.7
 74
    0
  0
ENDTAB
  0
TABLE
  2
LAYER
  5
2
330
0
100
AcDbSymbolTable
 70
    1
  0
LAYER
  5
10
330
2
100
AcDbSymbolTableRecord
100
AcDbLayerTableRecord
  2
0
 70
    1
 62
    7
  6
CONTINUOUS
290
0
370
    0
390
F
  0
LAYER
  5
4A
330
2
100
AcDbSymbolTableRecord
100
AcDbLayerTableRecord
  2
mesure
 70
    0
 62
    5
  6
DASHED2
370
    0
390
F
  0
LAYER
  5
4B
330
2
100
AcDbSymbolTableRecord
100
AcDbLayerTableRecord
  2
roof
 70
    0
 62
    6
  6
CONTINUOUS
370
   15
390
F
  0
LAYER
  5
4C
330
2
100
AcDbSymbolTableRecord
100
AcDbLayerTableRecord
  2
wall
 70
    0
 62
    3
  6
CONTINUOUS
370
   15
390
F
  0
LAYER
  5
4D
330
2
100
AcDbSymbolTableRecord
100
AcDbLayerTableRecord
  2
window
 70
    0
 62
    4
  6
CONTINUOUS
370
   15
390
F
  0
ENDTAB
  0
TABLE
  2
STYLE
  5
3
330
0
100
AcDbSymbolTable
 70
    3
  0
STYLE
  5
4E
330
2
100
AcDbSymbolTableRecord
100
AcDbTextStyleTableRecord
  2
Standard
 70
    0
 40
0
 41
1
 50
0
 71
    0
 42
1
  3
txt
  4

  0
ENDTAB
  0
TABLE
  2
VIEW
  5
6
330
0
100
AcDbSymbolTable
 70
    0
  0
ENDTAB
  0
TABLE
  2
UCS
  5
7
330
0
100
AcDbSymbolTable
 70
    0
  0
ENDTAB
  0
TABLE
  2
APPID
  5
9
330
0
100
AcDbSymbolTable
 70
    1
  0
APPID
  5
12
330
9
100
AcDbSymbolTableRecord
100
AcDbRegAppTableRecord
  2
ACAD
 70
    0
  0
APPID
  5
4F
330
9
100
AcDbSymbolTableRecord
100
AcDbRegAppTableRecord
  2
LibreCad
 70
    0
  0
ENDTAB
  0
TABLE
  2
DIMSTYLE
  5
A
330
0
100
AcDbSymbolTable
 70
    1
100
AcDbDimStyleTable
 71
    1
  0
DIMSTYLE
105
50
330
A
100
AcDbSymbolTableRecord
100
AcDbDimStyleTableRecord
  2
Standard
 70
    0
 40
1
 41
0.0025
 42
0.000625
 43
0.38
 44
0.00125
 45
0
 46
0
 47
0
 48
0
 49
0.001
140
0.5
141
0.09
142
0
143
25.4
144
1
145
0
146
1
147
0.000625
148
0
 71
    0
 72
    0
 73
    0
 74
    1
 75
    0
 76
    0
 77
    0
 78
    1
 79
    0
170
    0
171
    2
172
    0
173
    0
174
    0
175
    0
176
    0
177
    0
178
    0
179
    2
271
    2
272
    4
273
    2
274
    2
275
    0
276
    0
277
    2
278
    0
279
    0
280
    0
281
    0
282
    0
283
    1
284
    0
285
    0
286
    0
288
    0
289
    3
340
standard
341

371
   -2
372
   -2
  0
ENDTAB
  0
TABLE
  2
BLOCK_RECORD
  5
1
330
0
100
AcDbSymbolTable
 70
    2
  0
BLOCK_RECORD
  5
1F
330
1
100
AcDbSymbolTableRecord
100
AcDbBlockTableRecord
  2
*Model_Space
 70
    0
280
    1
281
    0
  0
BLOCK_RECORD
  5
1E
330
1
100
AcDbSymbolTableRecord
100
AcDbBlockTableRecord
  2
*Paper_Space
 70
    0
280
    1
281
    0
  0
BLOCK_RECORD
  5
51
330
1
100
AcDbSymbolTableRecord
100
AcDbBlockTableRecord
  2
*D10
 70
    0
280
    1
281
    0
  0
BLOCK_RECORD
  5
54
330
1
100
AcDbSymbolTableRecord
100
AcDbBlockTableRecord
  2
*D1
 70
    0
280
    1
281
    0
  0
BLOCK_RECORD
  5
57
330
1
100
AcDbSymbolTableRecord
100
AcDbBlockTableRecord
  2
*D13
 70
    0
280
    1
281
    0
  0
BLOCK_RECORD
  5
5A
330
1
100
AcDbSymbolTableRecord
100
AcDbBlockTableRecord
  2
*D12
 70
    0
280
    1
281
    0
  0
BLOCK_RECORD
  5
5D
330
1
100
AcDbSymbolTableRecord
100
AcDbBlockTableRecord
  2
*D19
 70
    0
280
    1
281
    0
  0
BLOCK_RECORD
  5
60
330
1
100
AcDbSymbolTableRecord
100
AcDbBlockTableRecord
  2
*D5
 70
    0
280
    1
281
    0
  0
BLOCK_RECORD
  5
63
330
1
100
AcDbSymbolTableRecord
100
AcDbBlockTableRecord
  2
*D3
 70
    0
280
    1
281
    0
  0
BLOCK_RECORD
  5
66
330
1
100
AcDbSymbolTableRecord
100
AcDbBlockTableRecord
  2
*D9
 70
    0
280
    1
281
    0
  0
BLOCK_RECORD
  5
69
330
1
100
AcDbSymbolTableRecord
100
AcDbBlockTableRecord
  2
*D11
 70
    0
280
    1
281
    0
  0
BLOCK_RECORD
  5
6C
330
1
100
AcDbSymbolTableRecord
100
AcDbBlockTableRecord
  2
*D8
 70
    0
280
    1
281
    0
  0
BLOCK_RECORD
  5
6F
330
1
100
AcDbSymbolTableRecord
100
AcDbBlockTableRecord
  2
*D15
 70
    0
280
    1
281
    0
  0
BLOCK_RECORD
  5
72
330
1
100
AcDbSymbolTableRecord
100
AcDbBlockTableRecord
  2
*D16
 70
    0
280
    1
281
    0
  0
BLOCK_RECORD
  5
75
330
1
100
AcDbSymbolTableRecord
100
AcDbBlockTableRecord
  2
*D18
 70
    0
280
    1
281
    0
  0
BLOCK_RECORD
  5
78
330
1
100
AcDbSymbolTableRecord
100
AcDbBlockTableRecord
  2
*D17
 70
    0
280
    1
281
    0
  0
BLOCK_RECORD
  5
7B
330
1
100
AcDbSymbolTableRecord
100
AcDbBlockTableRecord
  2
*D7
 70
    0
280
    1
281
    0
  0
BLOCK_RECORD
  5
7E
330
1
100
AcDbSymbolTableRecord
100
AcDbBlockTableRecord
  2
*D6
 70
    0
280
    1
281
    0
  0
BLOCK_RECORD
  5
81
330
1
100
AcDbSymbolTableRecord
100
AcDbBlockTableRecord
  2
*D2
 70
    0
280
    1
281
    0
  0
BLOCK_RECORD
  5
84
330
1
100
AcDbSymbolTableRecord
100
AcDbBlockTableRecord
  2
*D4
 70
    0
280
    1
281
    0
  0
BLOCK_RECORD
  5
87
330
1
100
AcDbSymbolTableRecord
100
AcDbBlockTableRecord
  2
*D14
 70
    0
280
    1
281
    0
  0
ENDTAB
  0
ENDSEC
  0
SECTION
  2
BLOCKS
  0
BLOCK
  5
20
330
1F
100
AcDbEntity
  8
0
100
AcDbBlockBegin
  2
*Model_Space
 70
    0
 10
0
 20
0
 30
0
  3
*Model_Space
  1

  0
ENDBLK
  5
21
330
1F
100
AcDbEntity
  8
0
100
AcDbBlockEnd
  0
BLOCK
  5
1C
330
1B
100
AcDbEntity
  8
0
100
AcDbBlockBegin
  2
*Paper_Space
 70
    0
 10
0
 20
0
 30
0
  3
*Paper_Space
  1

  0
ENDBLK
  5
1D
330
1F
100
AcDbEntity
  8
0
100
AcDbBlockEnd
  0
BLOCK
  5
52
330
51
100
AcDbEntity
  8
0
100
AcDbBlockBegin
  2
*D10
 70
    1
 10
0
 20
0
  3
*D10
  1

  0
LINE
  5
8A
100
AcDbEntity
  8
mesure
  6
ByBlock
 62
    0
370
   -2
100
AcDbLine
 10
19.999375
 20
1
 11
18.99875
 21
1
  0
LINE
  5
8B
100
AcDbEntity
  8
mesure
  6
ByBlock
 62
    0
370
   -2
100
AcDbLine
 10
19.999375
 20
3.13
 11
18.99875
 21
3.13
  0
LINE
  5
8C
100
AcDbEntity
  8
mesure
  6
ByBlock
 62
    0
370
   -2
100
AcDbLine
 10
19
 20
1
 11
19
 21
3.13
  0
MTEXT
  5
8D
100
AcDbEntity
  8
mesure
  6
CONTINUOUS
 62
    0
370
   -2
100
AcDbMText
 10
18.749375
 20
2.065
 30
0
 40
0.5
 41
1.055555555555586
 71
    5
 72
    1
  1
2.13
  7
standard
210
0
220
0
230
1
 50
90
 73
    2
 44
1
  0
SOLID
  5
8E
100
AcDbEntity
  8
mesure
  6
ByBlock
 62
    0
370
   -2
100
AcDbTrace
 10
19
 20
1
 30
0
 11
18.99958371534223
 21
1.0025
 31
0
 12
19.00041628465777
 22
1.0025
 32
0
 13
19.00041628465777
 23
1.0025
 33
0
  0
SOLID
  5
8F
100
AcDbEntity
  8
mesure
  6
ByBlock
 62
    0
370
   -2
100
AcDbTrace
 10
19
 20
3.13
 30
0
 11
19.00041628465777
 21
3.1275
 31
0
 12
18.99958371534223
 22
3.1275
 32
0
 13
18.99958371534223
 23
3.1275
 33
0
  0
ENDBLK
  5
53
330
51
100
AcDbEntity
  8
0
100
AcDbBlockEnd
  0
BLOCK
  5
55
330
54
100
AcDbEntity
  8
0
100
AcDbBlockBegin
  2
*D1
 70
    1
 10
0
 20
0
  3
*D1
  1

  0
LINE
  5
90
100
AcDbEntity
  8
mesure
  6
ByBlock
 62
    0
370
   -2
100
AcDbLine
 10
12.000625
 20
0
 11
13.00125
 21
0
  0
LINE
  5
91
100
AcDbEntity
  8
mesure
  6
ByBlock
 62
    0
370
   -2
100
AcDbLine
 10
12.000625
 20
12
 11
13.00125
 21
12
  0
LINE
  5
92
100
AcDbEntity
  8
mesure
  6
ByBlock
 62
    0
370
   -2
100
AcDbLine
 10
13
 20
0
 11
13
 21
12
  0
MTEXT
  5
93
100
AcDbEntity
  8
mesure
  6
CONTINUOUS
 62
    0
370
   -2
100
AcDbMText
 10
12.749375
 20
6
 30
0
 40
0.5
 41
1.444444444444444
 71
    5
 72
    1
  1
12.00
  7
standard
210
0
220
0
230
1
 50
90
 73
    2
 44
1
  0
SOLID
  5
94
100
AcDbEntity
  8
mesure
  6
ByBlock
 62
    0
370
   -2
100
AcDbTrace
 10
13
 20
0
 30
0
 11
12.99958371534223
 21
0.0025
 31
0
 12
13.00041628465777
 22
0.0025
 32
0
 13
13.00041628465777
 23
0.0025
 33
0
  0
SOLID
  5
95
100
AcDbEntity
  8
mesure
  6
ByBlock
 62
    0
370
   -2
100
AcDbTrace
 10
13
 20
12
 30
0
 11
13.00041628465777
 21
11.9975
 31
0
 12
12.99958371534223
 22
11.9975
 32
0
 13
12.99958371534223
 23
11.9975
 33
0
  0
ENDBLK
  5
56
330
54
100
AcDbEntity
  8
0
100
AcDbBlockEnd
  0
BLOCK
  5
58
330
57
100
AcDbEntity
  8
0
100
AcDbBlockBegin
  2
*D13
 70
    1
 10
0
 20
0
  3
*D13
  1

  0
ARC
  5
96
100
AcDbEntity
  8
window
  6
ByBlock
 62
    0
370
   -2
100
AcDbCircle
 10
16.15763291567897
 20
1
 40
6.915055120286452
100
AcDbArc
 50
0
 51
29.00160999522869
  0
SOLID
  5
97
100
AcDbEntity
  8
window
  6
ByBlock
 62
    0
370
   -2
100
AcDbTrace
 10
23.07268803596542
 20
1
 30
0
 11
23.07227129940193
 21
1.002499924709456
 31
0
 12
23.07310386870387
 22
1.002500075208854
 32
0
 13
23.07310386870387
 23
1.002500075208854
 33
0
  0
SOLID
  5
98
100
AcDbEntity
  8
window
  6
ByBlock
 62
    0
370
   -2
100
AcDbTrace
 10
22.20558219355998
 20
4.352655193839423
 30
0
 11
22.20715800535825
 21
4.350670222783526
 31
0
 12
22.20642976221434
 22
4.350266696342576
 32
0
 13
22.20642976221434
 23
4.350266696342576
 33
0
  0
MTEXT
  5
99
100
AcDbEntity
  8
window
  6
CONTINUOUS
 62
    0
370
   -2
100
AcDbMText
 10
22.85300797707805
 20
2.731642085801951
 30
0
 40
0.5
 41
1.888888888888889
 71
    8
 72
    1
  1
29.00%%D
  7
standard
210
0
220
0
230
1
 50
284.5008049976144
 73
    2
 44
1
  0
ENDBLK
  5
59
330
57
100
AcDbEntity
  8
0
100
AcDbBlockEnd
  0
BLOCK
  5
5B
330
5A
100
AcDbEntity
  8
0
100
AcDbBlockBegin
  2
*D12
 70
    1
 10
0
 20
0
  3
*D12
  1

  0
LINE
  5
9A
100
AcDbEntity
  8
mesure
  6
ByBlock
 62
    0
370
   -2
100
AcDbLine
 10
15.000532396326
 20
12.00032738227207
 11
15.88910319059298
 21
12.5467292098481
  0
LINE
  5
9B
100
AcDbEntity
  8
mesure
  6
ByBlock
 62
    0
370
   -2
100
AcDbLine
 10
6.000532396325998
 20
26.63632738227207
 11
6.889103190592984
 21
27.1827292098481
  0
LINE
  5
9C
100
AcDbEntity
  8
mesure
  6
ByBlock
 62
    0
370
   -2
100
AcDbLine
 10
15.88803839794099
 20
12.54607444530397
 11
6.888038397940988
 21
27.18207444530397
  0
MTEXT
  5
9D
100
AcDbEntity
  8
mesure
  6
CONTINUOUS
 62
    0
370
   -2
100
AcDbMText
 10
11.60152932466609
 20
19.99535473640304
 30
0
 40
0.5
 41
1.333333333333333
 71
    5
 72
    1
  1
17.18
  7
standard
210
0
220
0
230
1
 50
301.5882775279915
 73
    2
 44
1
  0
SOLID
  5
9E
100
AcDbEntity
  8
mesure
  6
ByBlock
 62
    0
370
   -2
100
AcDbTrace
 10
15.88803839794099
 20
12.54607444530397
 30
0
 11
15.88637426337693
 21
12.54798597586062
 31
0
 12
15.88708347432851
 22
12.5484220853553
 32
0
 13
15.88708347432851
 23
12.5484220853553
 33
0
  0
SOLID
  5
9F
100
AcDbEntity
  8
mesure
  6
ByBlock
 62
    0
370
   -2
100
AcDbTrace
 10
6.888038397940988
 20
27.18207444530397
 30
0
 11
6.889702532505046
 21
27.18016291474732
 31
0
 12
6.88899332155347
 22
27.17972680525263
 32
0
 13
6.88899332155347
 23
27.17972680525263
 33
0
  0
ENDBLK
  5
5C
330
5A
100
AcDbEntity
  8
0
100
AcDbBlockEnd
  0
BLOCK
  5
5E
330
5D
100
AcDbEntity
  8
0
100
AcDbBlockBegin
  2
*D19
 70
    1
 10
0
 20
0
  3
*D19
  1

  0
LINE
  5
A0
100
AcDbEntity
  8
mesure
  6
ByBlock
 62
    0
370
   -2
100
AcDbLine
 10
31
 20
9.781999999999998
 11
31
 21
1
  0
MTEXT
  5
A1
100
AcDbEntity
  8
mesure
  6
CONTINUOUS
 62
    0
370
   -2
100
AcDbMText
 10
30.749375
 20
5.390999999999999
 30
0
 40
0.5
 41
1.166666666666667
 71
    5
 72
    1
  1
8.78
  7
standard
210
0
220
0
230
1
 50
90
 73
    2
 44
1
  0
SOLID
  5
A2
100
AcDbEntity
  8
mesure
  6
ByBlock
 62
    0
370
   -2
100
AcDbTrace
 10
31
 20
9.781999999999998
 30
0
 11
31.00041628465777
 21
9.779499999999999
 31
0
 12
30.99958371534223
 22
9.779499999999999
 32
0
 13
30.99958371534223
 23
9.779499999999999
 33
0
  0
SOLID
  5
A3
100
AcDbEntity
  8
mesure
  6
ByBlock
 62
    0
370
   -2
100
AcDbTrace
 10
31
 20
1
 30
0
 11
30.99958371534223
 21
1.0025
 31
0
 12
31.00041628465777
 22
1.0025
 32
0
 13
31.00041628465777
 23
1.0025
 33
0
  0
LINE
  5
A4
100
AcDbEntity
  8
mesure
  6
ByBlock
 62
    0
370
   -2
100
AcDbLine
 10
31.999375
 20
9.781999999999998
 11
30.99875
 21
9.781999999999998
  0
LINE
  5
A5
100
AcDbEntity
  8
mesure
  6
ByBlock
 62
    0
370
   -2
100
AcDbLine
 10
31.999375
 20
1
 11
30.99875
 21
1
  0
ENDBLK
  5
5F
330
5D
100
AcDbEntity
  8
0
100
AcDbBlockEnd
  0
BLOCK
  5
61
330
60
100
AcDbEntity
  8
0
100
AcDbBlockBegin
  2
*D5
 70
    1
 10
0
 20
0
  3
*D5
  1

  0
LINE
  5
A6
100
AcDbEntity
  8
mesure
  6
ByBlock
 62
    0
370
   -2
100
AcDbLine
 10
3.826894855694929e-20
 20
0.000625
 11
6.130685558823276e-17
 21
1.00125
  0
LINE
  5
A7
100
AcDbEntity
  8
mesure
  6
ByBlock
 62
    0
370
   -2
100
AcDbLine
 10
-3
 20
0.000625
 11
-3
 21
1.00125
  0
LINE
  5
A8
100
AcDbEntity
  8
mesure
  6
ByBlock
 62
    0
370
   -2
100
AcDbLine
 10
6.123031769111886e-17
 20
1
 11
-3
 21
1
  0
MTEXT
  5
A9
100
AcDbEntity
  8
mesure
  6
CONTINUOUS
 62
    0
370
   -2
100
AcDbMText
 10
-1.5
 20
1.250625
 30
0
 40
0.5
 41
1.166666666666698
 71
    5
 72
    1
  1
3.00
  7
standard
210
0
220
0
230
1
 50
0
 73
    2
 44
1
  0
SOLID
  5
AA
100
AcDbEntity
  8
mesure
  6
ByBlock
 62
    0
370
   -2
100
AcDbTrace
 10
6.123031769111886e-17
 20
1
 30
0
 11
-0.002499999999999938
 21
0.9995837153422271
 31
0
 12
-0.002499999999999939
 22
1.000416284657773
 32
0
 13
-0.002499999999999939
 23
1.000416284657773
 33
0
  0
SOLID
  5
AB
100
AcDbEntity
  8
mesure
  6
ByBlock
 62
    0
370
   -2
100
AcDbTrace
 10
-3
 20
1
 30
0
 11
-2.9975
 21
1.000416284657773
 31
0
 12
-2.9975
 22
0.9995837153422271
 32
0
 13
-2.9975
 23
0.9995837153422271
 33
0
  0
ENDBLK
  5
62
330
60
100
AcDbEntity
  8
0
100
AcDbBlockEnd
  0
BLOCK
  5
64
330
63
100
AcDbEntity
  8
0
100
AcDbBlockBegin
  2
*D3
 70
    1
 10
0
 20
0
  3
*D3
  1

  0
LINE
  5
AC
100
AcDbEntity
  8
mesure
  6
ByBlock
 62
    0
370
   -2
100
AcDbLine
 10
12.00054126190789
 20
12.00031250687523
 11
13.01434710745747
 21
12.58565075488307
  0
LINE
  5
AD
100
AcDbEntity
  8
mesure
  6
ByBlock
 62
    0
370
   -2
100
AcDbLine
 10
6.000541261907892
 20
22.39231250687522
 11
7.014347107457468
 21
22.97765075488306
  0
LINE
  5
AE
100
AcDbEntity
  8
mesure
  6
ByBlock
 62
    0
370
   -2
100
AcDbLine
 10
13.01326458364168
 20
12.58502574113261
 11
7.013264583641682
 21
22.97702574113261
  0
MTEXT
  5
AF
100
AcDbEntity
  8
mesure
  6
CONTINUOUS
 62
    0
370
   -2
100
AcDbMText
 10
10.23031060870676
 20
17.90634099809859
 30
0
 40
0.5
 41
1.444444444444444
 71
    5
 72
    1
  1
12.00
  7
standard
210
0
220
0
230
1
 50
300.0007277808274
 73
    2
 44
1
  0
SOLID
  5
B0
100
AcDbEntity
  8
mesure
  6
ByBlock
 62
    0
370
   -2
100
AcDbTrace
 10
13.01326458364168
 20
12.58502574113261
 30
0
 11
13.01165404569583
 21
12.58698264185601
 31
0
 12
13.01237506658572
 22
12.58739893567235
 32
0
 13
13.01237506658572
 23
12.58739893567235
 33
0
  0
SOLID
  5
B1
100
AcDbEntity
  8
mesure
  6
ByBlock
 62
    0
370
   -2
100
AcDbTrace
 10
7.013264583641682
 20
22.97702574113261
 30
0
 11
7.014875121587538
 21
22.9750688404092
 31
0
 12
7.014154100697641
 22
22.97465254659287
 32
0
 13
7.014154100697641
 23
22.97465254659287
 33
0
  0
ENDBLK
  5
65
330
63
100
AcDbEntity
  8
0
100
AcDbBlockEnd
  0
BLOCK
  5
67
330
66
100
AcDbEntity
  8
0
100
AcDbBlockBegin
  2
*D9
 70
    1
 10
0
 20
0
  3
*D9
  1

  0
LINE
  5
B2
100
AcDbEntity
  8
mesure
  6
ByBlock
 62
    0
370
   -2
100
AcDbLine
 10
20
 20
0.999375
 11
20
 21
-0.00125
  0
LINE
  5
B3
100
AcDbEntity
  8
mesure
  6
ByBlock
 62
    0
370
   -2
100
AcDbLine
 10
32
 20
0.999375
 11
32
 21
-0.00125
  0
LINE
  5
B4
100
AcDbEntity
  8
mesure
  6
ByBlock
 62
    0
370
   -2
100
AcDbLine
 10
20
 20
0
 11
32
 21
0
  0
MTEXT
  5
B5
100
AcDbEntity
  8
mesure
  6
CONTINUOUS
 62
    0
370
   -2
100
AcDbMText
 10
26
 20
0.250625
 30
0
 40
0.5
 41
1.444444444444444
 71
    5
 72
    1
  1
12.00
  7
standard
210
0
220
0
230
1
 50
0
 73
    2
 44
1
  0
SOLID
  5
B6
100
AcDbEntity
  8
mesure
  6
ByBlock
 62
    0
370
   -2
100
AcDbTrace
 10
20
 20
0
 30
0
 11
20.0025
 21
0.0004162846577728402
 31
0
 12
20.0025
 22
-0.0004162846577728408
 32
0
 13
20.0025
 23
-0.0004162846577728408
 33
0
  0
SOLID
  5
B7
100
AcDbEntity
  8
mesure
  6
ByBlock
 62
    0
370
   -2
100
AcDbTrace
 10
32
 20
0
 30
0
 11
31.9975
 21
-0.0004162846577728404
 31
0
 12
31.9975
 22
0.0004162846577728404
 32
0
 13
31.9975
 23
0.0004162846577728404
 33
0
  0
ENDBLK
  5
68
330
66
100
AcDbEntity
  8
0
100
AcDbBlockEnd
  0
BLOCK
  5
6A
330
69
100
AcDbEntity
  8
0
100
AcDbBlockBegin
  2
*D11
 70
    1
 10
0
 20
0
  3
*D11
  1

  0
LINE
  5
B8
100
AcDbEntity
  8
mesure
  6
ByBlock
 62
    0
370
   -2
100
AcDbLine
 10
32
 20
0.999375
 11
32
 21
-0.00125
  0
LINE
  5
B9
100
AcDbEntity
  8
mesure
  6
ByBlock
 62
    0
370
   -2
100
AcDbLine
 10
42.392
 20
0.999375
 11
42.392
 21
-0.00125
  0
LINE
  5
BA
100
AcDbEntity
  8
mesure
  6
ByBlock
 62
    0
370
   -2
100
AcDbLine
 10
32
 20
0
 11
42.392
 21
0
  0
MTEXT
  5
BB
100
AcDbEntity
  8
mesure
  6
CONTINUOUS
 62
    0
370
   -2
100
AcDbMText
 10
37.196
 20
0.250625
 30
0
 40
0.5
 41
1.444444444444475
 71
    5
 72
    1
  1
10.39
  7
standard
210
0
220
0
230
1
 50
0
 73
    2
 44
1
  0
SOLID
  5
BC
100
AcDbEntity
  8
mesure
  6
ByBlock
 62
    0
370
   -2
100
AcDbTrace
 10
32
 20
0
 30
0
 11
32.0025
 21
0.0004162846577728402
 31
0
 12
32.0025
 22
-0.0004162846577728408
 32
0
 13
32.0025
 23
-0.0004162846577728408
 33
0
  0
SOLID
  5
BD
100
AcDbEntity
  8
mesure
  6
ByBlock
 62
    0
370
   -2
100
AcDbTrace
 10
42.392
 20
0
 30
0
 11
42.3895
 21
-0.0004162846577728404
 31
0
 12
42.3895
 22
0.0004162846577728404
 32
0
 13
42.3895
 23
0.0004162846577728404
 33
0
  0
ENDBLK
  5
6B
330
69
100
AcDbEntity
  8
0
100
AcDbBlockEnd
  0
BLOCK
  5
6D
330
6C
100
AcDbEntity
  8
0
100
AcDbBlockBegin
  2
*D8
 70
    1
 10
0
 20
0
  3
*D8
  1

  0
LINE
  5
BE
100
AcDbEntity
  8
mesure
  6
ByBlock
 62
    0
370
   -2
100
AcDbLine
 10
19.99969697862711
 20
3.130546628802363
 11
19.33547570647164
 21
4.328754118396735
  0
LINE
  5
BF
100
AcDbEntity
  8
mesure
  6
ByBlock
 62
    0
370
   -2
100
AcDbLine
 10
46.63469697862712
 20
17.89554662880236
 11
45.97047570647164
 21
19.09375411839673
  0
LINE
  5
C0
100
AcDbEntity
  8
mesure
  6
ByBlock
 62
    0
370
   -2
100
AcDbLine
 10
19.33608174921741
 20
4.327660860792009
 11
45.97108174921742
 21
19.09266086079201
  0
MTEXT
  5
C1
100
AcDbEntity
  8
mesure
  6
CONTINUOUS
 62
    0
370
   -2
100
AcDbMText
 10
32.53207017868908
 20
11.92935901053953
 30
0
 40
0.5
 41
1.611111111111173
 71
    5
 72
    1
  1
30.45
  7
standard
210
0
220
0
230
1
 50
29.00160999522869
 73
    2
 44
1
  0
SOLID
  5
C2
100
AcDbEntity
  8
mesure
  6
ByBlock
 62
    0
370
   -2
100
AcDbTrace
 10
19.33608174921741
 20
4.327660860792009
 30
0
 11
19.33806643538925
 21
4.329237031377836
 31
0
 12
19.33847009346448
 22
4.328508861189291
 32
0
 13
19.33847009346448
 23
4.328508861189291
 33
0
  0
SOLID
  5
C3
100
AcDbEntity
  8
mesure
  6
ByBlock
 62
    0
370
   -2
100
AcDbTrace
 10
45.97108174921742
 20
19.09266086079201
 30
0
 11
45.96909706304558
 21
19.09108469020618
 31
0
 12
45.96869340497035
 22
19.09181286039473
 32
0
 13
45.96869340497035
 23
19.09181286039473
 33
0
  0
ENDBLK
  5
6E
330
6C
100
AcDbEntity
  8
0
100
AcDbBlockEnd
  0
BLOCK
  5
70
330
6F
100
AcDbEntity
  8
0
100
AcDbBlockBegin
  2
*D15
 70
    1
 10
0
 20
0
  3
*D15
  1

  0
LINE
  5
C4
100
AcDbEntity
  8
mesure
  6
ByBlock
 62
    0
370
   -2
100
AcDbLine
 10
45
 20
11.4423694164195
 11
45
 21
0.9999999999999998
  0
MTEXT
  5
C5
100
AcDbEntity
  8
mesure
  6
CONTINUOUS
 62
    0
370
   -2
100
AcDbMText
 10
44.749375
 20
6.22118470820975
 30
0
 40
0.5
 41
1.555555555555555
 71
    5
 72
    1
  1
10.44
  7
standard
210
0
220
0
230
1
 50
90
 73
    2
 44
1
  0
SOLID
  5
C6
100
AcDbEntity
  8
mesure
  6
ByBlock
 62
    0
370
   -2
100
AcDbTrace
 10
45
 20
11.4423694164195
 30
0
 11
45.00041628465777
 21
11.4398694164195
 31
0
 12
44.99958371534223
 22
11.4398694164195
 32
0
 13
44.99958371534223
 23
11.4398694164195
 33
0
  0
SOLID
  5
C7
100
AcDbEntity
  8
mesure
  6
ByBlock
 62
    0
370
   -2
100
AcDbTrace
 10
45
 20
0.9999999999999998
 30
0
 11
44.99958371534223
 21
1.0025
 31
0
 12
45.00041628465777
 22
1.0025
 32
0
 13
45.00041628465777
 23
1.0025
 33
0
  0
LINE
  5
C8
100
AcDbEntity
  8
mesure
  6
ByBlock
 62
    0
370
   -2
100
AcDbLine
 10
34.99554267059489
 20
11.4423694164195
 11
45.00125
 21
11.4423694164195
  0
LINE
  5
C9
100
AcDbEntity
  8
mesure
  6
ByBlock
 62
    0
370
   -2
100
AcDbLine
 10
42.392625
 20
1
 11
45.00125
 21
0.9999999999999998
  0
ENDBLK
  5
71
330
6F
100
AcDbEntity
  8
0
100
AcDbBlockEnd
  0
BLOCK
  5
73
330
72
100
AcDbEntity
  8
0
100
AcDbBlockBegin
  2
*D16
 70
    1
 10
0
 20
0
  3
*D16
  1

  0
LINE
  5
CA
100
AcDbEntity
  8
mesure
  6
ByBlock
 62
    0
370
   -2
100
AcDbLine
 10
34.99542767658875
 20
11.44273069039619
 11
35.87247249399156
 21
12.06400470036423
  0
LINE
  5
CB
100
AcDbEntity
  8
mesure
  6
ByBlock
 62
    0
370
   -2
100
AcDbLine
 10
42.39251000599386
 20
1.000361273976683
 11
43.26955482339667
 21
1.621635283944733
  0
LINE
  5
CC
100
AcDbEntity
  8
mesure
  6
ByBlock
 62
    0
370
   -2
100
AcDbLine
 10
35.87145248200384
 20
12.06328215241087
 11
43.26853481140895
 21
1.620912735991367
  0
MTEXT
  5
CD
100
AcDbEntity
  8
mesure
  6
CONTINUOUS
 62
    0
370
   -2
100
AcDbMText
 10
39.77450605024369
 20
6.986968308850974
 30
0
 40
0.5
 41
1.444444444444444
 71
    5
 72
    1
  1
12.80
  7
standard
210
0
220
0
230
1
 50
305.3126894711407
 73
    2
 44
1
  0
SOLID
  5
CE
100
AcDbEntity
  8
mesure
  6
ByBlock
 62
    0
370
   -2
100
AcDbTrace
 10
35.87145248200384
 20
12.06328215241087
 30
0
 11
35.87323727018356
 21
12.06148275693743
 31
0
 12
35.87255788563758
 22
12.06100149993344
 32
0
 13
35.87255788563758
 23
12.06100149993344
 33
0
  0
SOLID
  5
CF
100
AcDbEntity
  8
mesure
  6
ByBlock
 62
    0
370
   -2
100
AcDbTrace
 10
43.26853481140895
 20
1.620912735991367
 30
0
 11
43.26675002322923
 21
1.622712131464808
 31
0
 12
43.2674294077752
 22
1.623193388468794
 32
0
 13
43.2674294077752
 23
1.623193388468794
 33
0
  0
ENDBLK
  5
74
330
72
100
AcDbEntity
  8
0
100
AcDbBlockEnd
  0
BLOCK
  5
76
330
75
100
AcDbEntity
  8
0
100
AcDbBlockBegin
  2
*D18
 70
    1
 10
0
 20
0
  3
*D18
  1

  0
LINE
  5
D0
100
AcDbEntity
  8
mesure
  6
ByBlock
 62
    0
370
   -2
100
AcDbLine
 10
42.392
 20
13
 11
46.63500000000001
 21
13
  0
MTEXT
  5
D1
100
AcDbEntity
  8
mesure
  6
CONTINUOUS
 62
    0
370
   -2
100
AcDbMText
 10
44.5135
 20
13.250625
 30
0
 40
0.5
 41
1.277777777777778
 71
    5
 72
    1
  1
4.24
  7
standard
210
0
220
0
230
1
 50
0
 73
    2
 44
1
  0
SOLID
  5
D2
100
AcDbEntity
  8
mesure
  6
ByBlock
 62
    0
370
   -2
100
AcDbTrace
 10
42.392
 20
13
 30
0
 11
42.39449999999999
 21
13.00041628465777
 31
0
 12
42.39449999999999
 22
12.99958371534223
 32
0
 13
42.39449999999999
 23
12.99958371534223
 33
0
  0
SOLID
  5
D3
100
AcDbEntity
  8
mesure
  6
ByBlock
 62
    0
370
   -2
100
AcDbTrace
 10
46.63500000000001
 20
13
 30
0
 11
46.63250000000001
 21
12.99958371534223
 31
0
 12
46.63250000000001
 22
13.00041628465777
 32
0
 13
46.63250000000001
 23
13.00041628465777
 33
0
  0
LINE
  5
D4
100
AcDbEntity
  8
mesure
  6
ByBlock
 62
    0
370
   -2
100
AcDbLine
 10
42.392
 20
1.000625
 11
42.392
 21
13.00125
  0
LINE
  5
D5
100
AcDbEntity
  8
mesure
  6
ByBlock
 62
    0
370
   -2
100
AcDbLine
 10
46.63500000000001
 20
17.894375
 11
46.63500000000001
 21
12.99875
  0
ENDBLK
  5
77
330
75
100
AcDbEntity
  8
0
100
AcDbBlockEnd
  0
BLOCK
  5
79
330
78
100
AcDbEntity
  8
0
100
AcDbBlockBegin
  2
*D17
 70
    1
 10
0
 20
0
  3
*D17
  1

  0
LINE
  5
D6
100
AcDbEntity
  8
mesure
  6
ByBlock
 62
    0
370
   -2
100
AcDbLine
 10
48
 20
17.895
 11
48
 21
0.9999999999999996
  0
MTEXT
  5
D7
100
AcDbEntity
  8
mesure
  6
CONTINUOUS
 62
    0
370
   -2
100
AcDbMText
 10
47.749375
 20
9.4475
 30
0
 40
0.5
 41
1.444444444444475
 71
    5
 72
    1
  1
16.89
  7
standard
210
0
220
0
230
1
 50
90
 73
    2
 44
1
  0
SOLID
  5
D8
100
AcDbEntity
  8
mesure
  6
ByBlock
 62
    0
370
   -2
100
AcDbTrace
 10
48
 20
17.895
 30
0
 11
48.00041628465777
 21
17.8925
 31
0
 12
47.99958371534223
 22
17.8925
 32
0
 13
47.99958371534223
 23
17.8925
 33
0
  0
SOLID
  5
D9
100
AcDbEntity
  8
mesure
  6
ByBlock
 62
    0
370
   -2
100
AcDbTrace
 10
48
 20
0.9999999999999996
 30
0
 11
47.99958371534223
 21
1.0025
 31
0
 12
48.00041628465777
 22
1.0025
 32
0
 13
48.00041628465777
 23
1.0025
 33
0
  0
LINE
  5
DA
100
AcDbEntity
  8
mesure
  6
ByBlock
 62
    0
370
   -2
100
AcDbLine
 10
46.635625
 20
17.895
 11
48.00125
 21
17.895
  0
LINE
  5
DB
100
AcDbEntity
  8
mesure
  6
ByBlock
 62
    0
370
   -2
100
AcDbLine
 10
42.392625
 20
1
 11
48.00125
 21
0.9999999999999996
  0
ENDBLK
  5
7A
330
78
100
AcDbEntity
  8
0
100
AcDbBlockEnd
  0
BLOCK
  5
7C
330
7B
100
AcDbEntity
  8
0
100
AcDbBlockBegin
  2
*D7
 70
    1
 10
0
 20
0
  3
*D7
  1

  0
ARC
  5
DC
100
AcDbEntity
  8
mesure
  6
ByBlock
 62
    0
370
   -2
100
AcDbCircle
 10
-4.440892098500626e-16
 20
12
 40
2.23606797749979
100
AcDbArc
 50
0
 51
59.99927221917264
  0
SOLID
  5
DD
100
AcDbEntity
  8
mesure
  6
ByBlock
 62
    0
370
   -2
100
AcDbTrace
 10
2.23606797749979
 20
12
 30
0
 11
2.235650295364648
 21
12.00249976689919
 31
0
 12
2.236482864550105
 22
12.00250023231956
 32
0
 13
2.236482864550105
 23
12.00250023231956
 33
0
  0
SOLID
  5
DE
100
AcDbEntity
  8
mesure
  6
ByBlock
 62
    0
370
   -2
100
AcDbTrace
 10
1.118058586309369
 20
13.93647747148783
 30
0
 11
1.120431283223173
 21
13.93558662791485
 31
0
 12
1.120014586408972
 22
13.93486583985292
 32
0
 13
1.120014586408972
 23
13.93486583985292
 33
0
  0
MTEXT
  5
DF
100
AcDbEntity
  8
mesure
  6
CONTINUOUS
 62
    0
370
   -2
100
AcDbMText
 10
1.937040041656551
 20
13.11833418646488
 30
0
 40
0.5
 41
1.88888888888892
 71
    8
 72
    1
  1
60.00%%D
  7
standard
210
0
220
0
230
1
 50
299.9996361095863
 73
    2
 44
1
  0
ENDBLK
  5
7D
330
7B
100
AcDbEntity
  8
0
100
AcDbBlockEnd
  0
BLOCK
  5
7F
330
7E
100
AcDbEntity
  8
0
100
AcDbBlockBegin
  2
*D6
 70
    1
 10
0
 20
0
  3
*D6
  1

  0
LINE
  5
E0
100
AcDbEntity
  8
mesure
  6
ByBlock
 62
    0
370
   -2
100
AcDbLine
 10
-4.000000000000002
 20
12
 11
-4.000000000000001
 21
22.392
  0
MTEXT
  5
E1
100
AcDbEntity
  8
mesure
  6
CONTINUOUS
 62
    0
370
   -2
100
AcDbMText
 10
-4.250625000000002
 20
17.196
 30
0
 40
0.5
 41
1.444444444444475
 71
    5
 72
    1
  1
10.39
  7
standard
210
0
220
0
230
1
 50
90
 73
    2
 44
1
  0
SOLID
  5
E2
100
AcDbEntity
  8
mesure
  6
ByBlock
 62
    0
370
   -2
100
AcDbTrace
 10
-4.000000000000002
 20
12
 30
0
 11
-4.000416284657774
 21
12.0025
 31
0
 12
-3.999583715342229
 22
12.0025
 32
0
 13
-3.999583715342229
 23
12.0025
 33
0
  0
SOLID
  5
E3
100
AcDbEntity
  8
mesure
  6
ByBlock
 62
    0
370
   -2
100
AcDbTrace
 10
-4.000000000000001
 20
22.392
 30
0
 11
-3.999583715342228
 21
22.38949999999999
 31
0
 12
-4.000416284657773
 22
22.38949999999999
 32
0
 13
-4.000416284657773
 23
22.38949999999999
 33
0
  0
LINE
  5
E4
100
AcDbEntity
  8
mesure
  6
ByBlock
 62
    0
370
   -2
100
AcDbLine
 10
-0.0006250000000004441
 20
12
 11
-4.001250000000002
 21
12
  0
LINE
  5
E5
100
AcDbEntity
  8
mesure
  6
ByBlock
 62
    0
370
   -2
100
AcDbLine
 10
5.999374999999999
 20
22.392
 11
-4.001250000000001
 21
22.392
  0
ENDBLK
  5
80
330
7E
100
AcDbEntity
  8
0
100
AcDbBlockEnd
  0
BLOCK
  5
82
330
81
100
AcDbEntity
  8
0
100
AcDbBlockBegin
  2
*D2
 70
    1
 10
0
 20
0
  3
*D2
  1

  0
LINE
  5
E6
100
AcDbEntity
  8
mesure
  6
ByBlock
 62
    0
370
   -2
100
AcDbLine
 10
15.000625
 20
0
 11
16.00125
 21
0
  0
LINE
  5
E7
100
AcDbEntity
  8
mesure
  6
ByBlock
 62
    0
370
   -2
100
AcDbLine
 10
15.000625
 20
12
 11
16.00125
 21
12
  0
LINE
  5
E8
100
AcDbEntity
  8
mesure
  6
ByBlock
 62
    0
370
   -2
100
AcDbLine
 10
16
 20
0
 11
16
 21
12
  0
MTEXT
  5
E9
100
AcDbEntity
  8
mesure
  6
CONTINUOUS
 62
    0
370
   -2
100
AcDbMText
 10
15.749375
 20
6
 30
0
 40
0.5
 41
1.444444444444444
 71
    5
 72
    1
  1
12.00
  7
standard
210
0
220
0
230
1
 50
90
 73
    2
 44
1
  0
SOLID
  5
EA
100
AcDbEntity
  8
mesure
  6
ByBlock
 62
    0
370
   -2
100
AcDbTrace
 10
16
 20
0
 30
0
 11
15.99958371534223
 21
0.0025
 31
0
 12
16.00041628465777
 22
0.0025
 32
0
 13
16.00041628465777
 23
0.0025
 33
0
  0
SOLID
  5
EB
100
AcDbEntity
  8
mesure
  6
ByBlock
 62
    0
370
   -2
100
AcDbTrace
 10
16
 20
12
 30
0
 11
16.00041628465777
 21
11.9975
 31
0
 12
15.99958371534223
 22
11.9975
 32
0
 13
15.99958371534223
 23
11.9975
 33
0
  0
ENDBLK
  5
83
330
81
100
AcDbEntity
  8
0
100
AcDbBlockEnd
  0
BLOCK
  5
85
330
84
100
AcDbEntity
  8
0
100
AcDbBlockBegin
  2
*D4
 70
    1
 10
0
 20
0
  3
*D4
  1

  0
LINE
  5
EC
100
AcDbEntity
  8
mesure
  6
ByBlock
 62
    0
370
   -2
100
AcDbLine
 10
3.826894855694929e-20
 20
0.000625
 11
6.130685558823276e-17
 21
1.00125
  0
LINE
  5
ED
100
AcDbEntity
  8
mesure
  6
ByBlock
 62
    0
370
   -2
100
AcDbLine
 10
12
 20
0.000625
 11
12
 21
1.00125
  0
LINE
  5
EE
100
AcDbEntity
  8
mesure
  6
ByBlock
 62
    0
370
   -2
100
AcDbLine
 10
6.123031769111886e-17
 20
1
 11
12
 21
1
  0
MTEXT
  5
EF
100
AcDbEntity
  8
mesure
  6
CONTINUOUS
 62
    0
370
   -2
100
AcDbMText
 10
6
 20
1.250625
 30
0
 40
0.5
 41
1.444444444444444
 71
    5
 72
    1
  1
12.00
  7
standard
210
0
220
0
230
1
 50
0
 73
    2
 44
1
  0
SOLID
  5
F0
100
AcDbEntity
  8
mesure
  6
ByBlock
 62
    0
370
   -2
100
AcDbTrace
 10
6.123031769111886e-17
 20
1
 30
0
 11
0.002500000000000061
 21
1.000416284657773
 31
0
 12
0.002500000000000061
 22
0.9995837153422271
 32
0
 13
0.002500000000000061
 23
0.9995837153422271
 33
0
  0
SOLID
  5
F1
100
AcDbEntity
  8
mesure
  6
ByBlock
 62
    0
370
   -2
100
AcDbTrace
 10
12
 20
1
 30
0
 11
11.9975
 21
0.9995837153422271
 31
0
 12
11.9975
 22
1.000416284657773
 32
0
 13
11.9975
 23
1.000416284657773
 33
0
  0
ENDBLK
  5
86
330
84
100
AcDbEntity
  8
0
100
AcDbBlockEnd
  0
BLOCK
  5
88
330
87
100
AcDbEntity
  8
0
100
AcDbBlockBegin
  2
*D14
 70
    1
 10
0
 20
0
  3
*D14
  1

  0
LINE
  5
F2
100
AcDbEntity
  8
mesure
  6
ByBlock
 62
    0
370
   -2
100
AcDbLine
 10
32
 20
9
 11
34.99491767059489
 21
9
  0
MTEXT
  5
F3
100
AcDbEntity
  8
mesure
  6
CONTINUOUS
 62
    0
370
   -2
100
AcDbMText
 10
33.49745883529744
 20
9.250624999999999
 30
0
 40
0.5
 41
1.166666666666667
 71
    5
 72
    1
  1
2.99
  7
standard
210
0
220
0
230
1
 50
0
 73
    2
 44
1
  0
SOLID
  5
F4
100
AcDbEntity
  8
mesure
  6
ByBlock
 62
    0
370
   -2
100
AcDbTrace
 10
32
 20
9
 30
0
 11
32.0025
 21
9.000416284657772
 31
0
 12
32.0025
 22
8.999583715342228
 32
0
 13
32.0025
 23
8.999583715342228
 33
0
  0
SOLID
  5
F5
100
AcDbEntity
  8
mesure
  6
ByBlock
 62
    0
370
   -2
100
AcDbTrace
 10
34.99491767059489
 20
9
 30
0
 11
34.99241767059489
 21
8.999583715342228
 31
0
 12
34.99241767059489
 22
9.000416284657772
 32
0
 13
34.99241767059489
 23
9.000416284657772
 33
0
  0
LINE
  5
F6
100
AcDbEntity
  8
mesure
  6
ByBlock
 62
    0
370
   -2
100
AcDbLine
 10
32
 20
9.781374999999999
 11
32
 21
8.998749999999999
  0
LINE
  5
F7
100
AcDbEntity
  8
mesure
  6
ByBlock
 62
    0
370
   -2
100
AcDbLine
 10
34.99491767059489
 20
11.4417444164195
 11
34.99491767059489
 21
8.998749999999999
  0
ENDBLK
  5
89
330
87
100
AcDbEntity
  8
0
100
AcDbBlockEnd
  0
ENDSEC
  0
SECTION
  2
ENTITIES
  0
IMAGE
  5
FA
100
AcDbEntity
  8
window
  6
ByLayer
 62
  256
370
   -1
100
AcDbRasterImage
 10
21.92833263429076
 20
25.83436802869601
 30
0
 11
-0.0048
 21
5.878110498347411e-19
 31
0
 12
-8.817165747521117e-19
 22
-0.0048
 32
0
 13
1920
 23
1920
340
F8
 70
    1
280
    0
281
   50
282
   50
283
    0
360
F9
  0
LINE
  5
FB
100
AcDbEntity
  8
0
  6
ByLayer
 62
  256
370
   -1
100
AcDbLine
 10
0
 20
12
 11
0
 21
0
  0
LINE
  5
FC
100
AcDbEntity
  8
0
  6
ByLayer
 62
  256
370
   -1
100
AcDbLine
 10
0
 20
0
 11
12
 21
0
  0
LINE
  5
FD
100
AcDbEntity
  8
0
  6
ByLayer
 62
  256
370
   -1
100
AcDbLine
 10
12
 20
0
 11
12
 21
12
  0
LINE
  5
FE
100
AcDbEntity
  8
0
  6
ByLayer
 62
  256
370
   -1
100
AcDbLine
 10
0
 20
12
 11
6
 21
22.392
  0
LINE
  5
FF
100
AcDbEntity
  8
0
  6
ByLayer
 62
  256
370
   -1
100
AcDbLine
 10
6
 20
22.392
 11
12
 21
12
  0
LINE
  5
100
100
AcDbEntity
  8
wall
  6
ByLayer
 62
  256
370
   -1
100
AcDbLine
 10
12
 20
12
 11
12
 21
0
  0
LINE
  5
101
100
AcDbEntity
  8
wall
  6
ByLayer
 62
  256
370
   -1
100
AcDbLine
 10
12
 20
0
 11
0
 21
0
  0
LINE
  5
102
100
AcDbEntity
  8
wall
  6
ByLayer
 62
  256
370
   -1
100
AcDbLine
 10
0
 20
0
 11
0
 21
12
  0
LINE
  5
103
100
AcDbEntity
  8
window
  6
ByLayer
 62
  256
370
   -1
100
AcDbLine
 10
0
 20
12
 11
6.000000000000002
 21
22.392
  0
LINE
  5
104
100
AcDbEntity
  8
window
  6
ByLayer
 62
  256
370
   -1
100
AcDbLine
 10
6.000000000000002
 20
22.392
 11
12
 21
12
  0
LINE
  5
105
100
AcDbEntity
  8
roof
  6
ByLayer
 62
  256
370
   -1
100
AcDbLine
 10
-3
 20
12
 11
-3
 21
0
  0
LINE
  5
106
100
AcDbEntity
  8
roof
  6
ByLayer
 62
  256
370
   -1
100
AcDbLine
 10
-3
 20
0
 11
0
 21
0
  0
LINE
  5
107
100
AcDbEntity
  8
roof
  6
ByLayer
 62
  256
370
   -1
100
AcDbLine
 10
12
 20
0
 11
15
 21
0
  0
LINE
  5
108
100
AcDbEntity
  8
roof
  6
ByLayer
 62
  256
370
   -1
100
AcDbLine
 10
15
 20
0
 11
15
 21
12
  0
DIMENSION
  5
109
100
AcDbEntity
  8
mesure
  6
ByLayer
 62
  256
370
   -1
100
AcDbDimension
  2
*D1
 10
13
 20
12
 30
0
 11
12.749375
 21
6
 31
0
 70
   33
 71
    5
  3
Standard
 53
0
210
0
220
0
230
1
100
AcDbAlignedDimension
 13
12
 23
0
 33
0
 14
12
 24
12
 34
0
  0
DIMENSION
  5
10A
100
AcDbEntity
  8
mesure
  6
ByLayer
 62
  256
370
   -1
100
AcDbDimension
  2
*D2
 10
16
 20
12
 30
0
 11
15.749375
 21
6
 31
0
 70
   33
 71
    5
  3
Standard
 53
0
210
0
220
0
230
1
100
AcDbAlignedDimension
 13
15
 23
0
 33
0
 14
15
 24
12
 34
0
  0
DIMENSION
  5
10B
100
AcDbEntity
  8
mesure
  6
ByLayer
 62
  256
370
   -1
100
AcDbDimension
  2
*D3
 10
7.013264583641682
 20
22.97702574113261
 30
0
 11
10.23031060870676
 21
17.90634099809859
 31
0
 70
   33
 71
    5
  3
Standard
 53
0
210
0
220
0
230
1
100
AcDbAlignedDimension
 13
12
 23
12
 33
0
 14
5.999999999999999
 24
22.392
 34
0
  0
DIMENSION
  5
10C
100
AcDbEntity
  8
mesure
  6
ByLayer
 62
  256
370
   -1
100
AcDbDimension
  2
*D4
 10
12
 20
1
 30
0
 11
6
 21
1.250625
 31
0
 70
   33
 71
    5
  3
Standard
 53
0
210
0
220
0
230
1
100
AcDbAlignedDimension
 13
0
 23
0
 33
0
 14
12
 24
0
 34
0
  0
DIMENSION
  5
10D
100
AcDbEntity
  8
mesure
  6
ByLayer
 62
  256
370
   -1
100
AcDbDimension
  2
*D5
 10
-3
 20
1
 30
0
 11
-1.5
 21
1.250625
 31
0
 70
   33
 71
    5
  3
Standard
 53
0
210
0
220
0
230
1
100
AcDbAlignedDimension
 13
0
 23
0
 33
0
 14
-3
 24
0
 34
0
  0
DIMENSION
  5
10E
100
AcDbEntity
  8
mesure
  6
ByLayer
 62
  256
370
   -1
100
AcDbDimension
  2
*D6
 10
-4.000000000000001
 20
22.392
 30
0
 11
-4.250625000000002
 21
17.196
 31
0
 70
   32
 71
    5
  3
Standard
 53
0
210
0
220
0
230
1
100
AcDbAlignedDimension
 13
-4.440892098500626e-16
 23
12
 33
0
 14
5.999999999999999
 24
22.392
 34
0
 50
90
100
AcDbRotatedDimension
  0
MTEXT
  5
10F
100
AcDbEntity
  8
window
  6
ByLayer
 62
  256
370
   -1
100
AcDbMText
 10
-3.000000000000046
 20
-1
 30
0
 40
1
 41
8.41666718095391
 71
    1
 72
    1
  1
Vue d'oiseau
  7

210
0
220
0
230
1
 50
0
 73
    2
 44
1
  0
DIMENSION
  5
110
100
AcDbEntity
  8
mesure
  6
ByLayer
 62
  256
370
   -1
100
AcDbDimension
  2
*D7
 10
6.000000000000002
 20
22.392
 30
0
 11
0
 21
0
 31
0
 70
   34
 71
    5
  3
Standard
 53
0
210
0
220
0
230
1
100
AcDb2LineAngularDimension
 13
0
 23
12
 33
0
 14
6
 24
12
 34
0
 15
0
 25
12
 35
0
 16
2
 26
13
 36
0
  0
LINE
  5
111
100
AcDbEntity
  8
wall
  6
ByLayer
 62
  256
370
   -1
100
AcDbLine
 10
32
 20
1
 11
20
 21
1
  0
LINE
  5
112
100
AcDbEntity
  8
wall
  6
ByLayer
 62
  256
370
   -1
100
AcDbLine
 10
20
 20
1
 11
20
 21
3.13
  0
LINE
  5
113
100
AcDbEntity
  8
wall
  6
ByLayer
 62
  256
370
   -1
100
AcDbLine
 10
32
 20
1
 11
32
 21
9.782
  0
LINE
  5
114
100
AcDbEntity
  8
window
  6
ByLayer
 62
  256
370
   -1
100
AcDbLine
 10
32
 20
1
 11
42.392
 21
1
  0
LINE
  5
115
100
AcDbEntity
  8
roof
  6
ByLayer
 62
  256
370
   -1
100
AcDbLine
 10
46.63500000000001
 20
17.895
 11
20
 21
3.13
  0
DIMENSION
  5
116
100
AcDbEntity
  8
mesure
  6
ByLayer
 62
  256
370
   -1
100
AcDbDimension
  2
*D8
 10
45.97108174921742
 20
19.09266086079201
 30
0
 11
32.53207017868908
 21
11.92935901053953
 31
0
 70
   33
 71
    5
  3
Standard
 53
0
210
0
220
0
230
1
100
AcDbAlignedDimension
 13
20
 23
3.13
 33
0
 14
46.63500000000001
 24
17.895
 34
0
  0
DIMENSION
  5
117
100
AcDbEntity
  8
mesure
  6
ByLayer
 62
  256
370
   -1
100
AcDbDimension
  2
*D9
 10
32
 20
0
 30
0
 11
26
 21
0.250625
 31
0
 70
   33
 71
    5
  3
Standard
 53
0
210
0
220
0
230
1
100
AcDbAlignedDimension
 13
20
 23
1
 33
0
 14
32
 24
1
 34
0
  0
DIMENSION
  5
118
100
AcDbEntity
  8
mesure
  6
ByLayer
 62
  256
370
   -1
100
AcDbDimension
  2
*D10
 10
19
 20
3.13
 30
0
 11
18.749375
 21
2.065
 31
0
 70
   33
 71
    5
  3
Standard
 53
0
210
0
220
0
230
1
100
AcDbAlignedDimension
 13
20
 23
1
 33
0
 14
20
 24
3.13
 34
0
  0
DIMENSION
  5
119
100
AcDbEntity
  8
mesure
  6
ByLayer
 62
  256
370
   -1
100
AcDbDimension
  2
*D11
 10
42.392
 20
0
 30
0
 11
37.196
 21
0.250625
 31
0
 70
   33
 71
    5
  3
Standard
 53
0
210
0
220
0
230
1
100
AcDbAlignedDimension
 13
32
 23
1
 33
0
 14
42.392
 24
1
 34
0
  0
MTEXT
  5
11A
100
AcDbEntity
  8
window
  6
ByLayer
 62
  256
370
   -1
100
AcDbMText
 10
20
 20
-1
 30
0
 40
1
 41
18.86111202857439
 71
    1
 72
    1
  1
Vue du cot (Ouest et Est)
  7

210
0
220
0
230
1
 50
0
 73
    2
 44
1
  0
MTEXT
  5
11B
100
AcDbEntity
  8
window
  6
ByLayer
 62
  256
370
   -1
100
AcDbMText
 10
-2.972222222222271
 20
-3
 30
0
 40
1
 41
9.055555555555696
 71
    1
 72
    1
  1
Valeur en [m]
  7

210
0
220
0
230
1
 50
0
 73
    2
 44
1
  0
LINE
  5
11C
100
AcDbEntity
  8
roof
  6
ByLayer
 62
  256
370
   -1
100
AcDbLine
 10
6
 20
26.636
 11
-3
 21
12
  0
LINE
  5
11D
100
AcDbEntity
  8
roof
  6
ByLayer
 62
  256
370
   -1
100
AcDbLine
 10
6
 20
26.636
 11
15
 21
12
  0
DIMENSION
  5
11E
100
AcDbEntity
  8
mesure
  6
ByLayer
 62
  256
370
   -1
100
AcDbDimension
  2
*D12
 10
6.888038397940988
 20
27.18207444530397
 30
0
 11
11.60152932466609
 21
19.99535473640304
 31
0
 70
   33
 71
    5
  3
Standard
 53
0
210
0
220
0
230
1
100
AcDbAlignedDimension
 13
15
 23
12
 33
0
 14
6
 24
26.636
 34
0
  0
DIMENSION
  5
11F
100
AcDbEntity
  8
window
  6
ByLayer
 62
  256
370
   -1
100
AcDbDimension
  2
*D13
 10
46.63500000000001
 20
17.895
 30
0
 11
0
 21
0
 31
0
 70
   34
 71
    5
  3
Standard
 53
0
210
0
220
0
230
1
100
AcDb2LineAngularDimension
 13
20
 23
1
 33
0
 14
32
 24
1
 34
0
 15
20
 25
3.13
 35
0
 16
23
 26
2
 36
0
  0
LINE
  5
120
100
AcDbEntity
  8
window
  6
ByLayer
 62
  256
370
   -1
100
AcDbLine
 10
0
 20
12
 11
12
 21
12
  0
LINE
  5
121
100
AcDbEntity
  8
window
  6
ByLayer
 62
  256
370
   -1
100
AcDbLine
 10
6
 20
14.98
 11
6.000000000000002
 21
22.392
  0
LINE
  5
122
100
AcDbEntity
  8
window
  6
ByLayer
 62
  256
370
   -1
100
AcDbLine
 10
34.99491767059489
 20
11.4423694164195
 11
42.392
 21
1
  0
LINE
  5
123
100
AcDbEntity
  8
window
  6
ByLayer
 62
  256
370
   -1
100
AcDbLine
 10
32
 20
1
 11
32
 21
9.782
  0
LINE
  5
124
100
AcDbEntity
  8
window
  6
ByLayer
 62
  256
370
   -1
100
AcDbLine
 10
32
 20
9.782
 11
34.99491767059489
 21
11.4423694164195
  0
LINE
  5
125
100
AcDbEntity
  8
window
  6
ByLayer
 62
  256
370
   -1
100
AcDbLine
 10
6
 20
14.98
 11
4
 21
12
  0
LINE
  5
126
100
AcDbEntity
  8
window
  6
ByLayer
 62
  256
370
   -1
100
AcDbLine
 10
6
 20
14.98
 11
8
 21
12
  0
DIMENSION
  5
127
100
AcDbEntity
  8
mesure
  6
ByLayer
 62
  256
370
   -1
100
AcDbDimension
  2
*D14
 10
34.99491767059489
 20
9
 30
0
 11
33.49745883529744
 21
9.250624999999999
 31
0
 70
   32
 71
    5
  3
Standard
 53
0
210
0
220
0
230
1
100
AcDbAlignedDimension
 13
32
 23
9.781999999999998
 33
0
 14
34.99491767059489
 24
11.4423694164195
 34
0
100
AcDbRotatedDimension
  0
DIMENSION
  5
128
100
AcDbEntity
  8
mesure
  6
ByLayer
 62
  256
370
   -1
100
AcDbDimension
  2
*D15
 10
45
 20
0.9999999999999997
 30
0
 11
44.749375
 21
6.22118470820975
 31
0
 70
   32
 71
    5
  3
Standard
 53
0
210
0
220
0
230
1
100
AcDbAlignedDimension
 13
34.99491767059489
 23
11.4423694164195
 33
0
 14
42.392
 24
1
 34
0
 50
90
100
AcDbRotatedDimension
  0
DIMENSION
  5
129
100
AcDbEntity
  8
mesure
  6
ByLayer
 62
  256
370
   -1
100
AcDbDimension
  2
*D16
 10
43.26853481140895
 20
1.620912735991367
 30
0
 11
39.77450605024369
 21
6.986968308850974
 31
0
 70
   33
 71
    5
  3
Standard
 53
0
210
0
220
0
230
1
100
AcDbAlignedDimension
 13
34.99491767059489
 23
11.4423694164195
 33
0
 14
42.392
 24
1
 34
0
  0
DIMENSION
  5
12A
100
AcDbEntity
  8
mesure
  6
ByLayer
 62
  256
370
   -1
100
AcDbDimension
  2
*D17
 10
48
 20
0.9999999999999993
 30
0
 11
47.749375
 21
9.4475
 31
0
 70
   32
 71
    5
  3
Standard
 53
0
210
0
220
0
230
1
100
AcDbAlignedDimension
 13
46.63500000000001
 23
17.895
 33
0
 14
42.392
 24
1
 34
0
 50
90
100
AcDbRotatedDimension
  0
DIMENSION
  5
12B
100
AcDbEntity
  8
mesure
  6
ByLayer
 62
  256
370
   -1
100
AcDbDimension
  2
*D18
 10
46.63500000000001
 20
13
 30
0
 11
44.5135
 21
13.250625
 31
0
 70
   32
 71
    5
  3
Standard
 53
0
210
0
220
0
230
1
100
AcDbAlignedDimension
 13
42.392
 23
1
 33
0
 14
46.63500000000001
 24
17.895
 34
0
100
AcDbRotatedDimension
  0
DIMENSION
  5
12C
100
AcDbEntity
  8
mesure
  6
ByLayer
 62
  256
370
   -1
100
AcDbDimension
  2
*D19
 10
31
 20
1
 30
0
 11
30.749375
 21
5.390999999999999
 31
0
 70
   32
 71
    5
  3
Standard
 53
0
210
0
220
0
230
1
100
AcDbAlignedDimension
 13
32
 23
9.781999999999998
 33
0
 14
32
 24
1
 34
0
 50
90
100
AcDbRotatedDimension
  0
ENDSEC
  0
SECTION
  2
OBJECTS
  0
DICTIONARY
  5
C
330
0
100
AcDbDictionary
281
    1
  3
ACAD_GROUP
350
D
  3
ACAD_IMAGE_DICT
350
12D
  0
DICTIONARY
  5
D
330
C
100
AcDbDictionary
281
    1
  0
IMAGEDEF_REACTOR
  5
F9
330
FA
100
AcDbRasterImageDefReactor
 90
    2
330
FA
  0
DICTIONARY
  5
12D
330
C
100
AcDbDictionary
281
    1
  3
compas
350
F8
  0
IMAGEDEF
  5
F8
102
{ACAD_REACTORS
330
F9
102
}
100
AcDbRasterImageDef
 90
    0
  1
C:/Users/Mehde_Alhadi/Desktop/compas.jpg
 10
1920
 20
1920
 11
1
 21
1
280
    1
281
    0
  0
PLOTSETTINGS
  5
12E
100
AcDbPlotSettings
  6
1x1
 40
10
 41
10
 42
10
 43
10
  0
ENDSEC
  0
EOF
